<svg fill="none" height="48" viewBox="0 0 44 48" width="44" xmlns="http://www.w3.org/2000/svg"><g fill="#fff"><path d="m10.4993 16.5h-7.29875c-1.76731 0-3.20055 1.4327-3.20055 3.2v2.8h11c2.7614 0 5-2.2386 5-5s2.2386-5 5-5h19c2.2091 0 4-1.7909 4-4v-3h-22.5c-3.0376 0-5.5 2.46243-5.5 5.5 0 3.0376-2.4631 5.5-5.5007 5.5z"/><path d="m10.4993 26.5h-7.29875c-1.76731 0-3.20055 1.4327-3.20055 3.2v2.8h11c2.7614 0 5-2.2386 5-5s2.2386-5 5-5h13c2.2091 0 4-1.7909 4-4v-3h-16.5c-3.0376 0-5.5 2.4624-5.5 5.5s-2.4631 5.5-5.5007 5.5z" opacity=".75"/><path d="m10.4993 36.5h-7.29875c-1.76731 0-3.20055 1.4327-3.20055 3.2v2.8h11c2.7614 0 5-2.2386 5-5s2.2386-5 5-5h7.8c1.7673 0 3.2-1.4327 3.2-3.2v-3.8h-10.5c-3.0376 0-5.5 2.4624-5.5 5.5s-2.4631 5.5-5.5007 5.5z" opacity=".5"/></g></svg>